<svg width="101" height="100" viewBox="0 0 101 100" fill="none" xmlns="http://www.w3.org/2000/svg">
<g clip-path="url(#clip0_263_435)">
<ellipse cx="41.234" cy="59.4307" rx="13.734" ry="14.4307" fill="#FCE000"/>
<path d="M41.7852 75.0416C50.0556 75.0416 56.7852 68.312 56.7852 60.0416C56.7852 51.7711 50.0556 45.0416 41.7852 45.0416C33.5147 45.0416 26.7852 51.7711 26.7852 60.0416C26.7852 68.312 33.5147 75.0416 41.7852 75.0416ZM41.7852 48.2743C48.2733 48.2743 53.5524 53.5523 53.5524 60.0416C53.5524 66.5308 48.2744 71.8088 41.7852 71.8088C35.2959 71.8088 30.0179 66.5308 30.0179 60.0416C30.0179 53.5523 35.2959 48.2743 41.7852 48.2743Z" fill="#262627"/>
<path d="M11.9251 71.6469V48.2548C11.9251 47.3675 11.2058 46.6482 10.3185 46.6482C9.43121 46.6482 8.71191 47.3675 8.71191 48.2548V71.6469C8.71191 72.5342 9.43121 73.2535 10.3185 73.2535C11.2058 73.2535 11.9251 72.5342 11.9251 71.6469Z" fill="#262627"/>
<path d="M74.1722 71.6469V48.2548C74.1722 47.3675 73.4529 46.6482 72.5656 46.6482C71.6783 46.6482 70.959 47.3675 70.959 48.2548V71.6469C70.959 72.5342 71.6783 73.2535 72.5656 73.2535C73.4529 73.2535 74.1722 72.5342 74.1722 71.6469Z" fill="#262627"/>
<path d="M100.5 18C100.5 17.4477 100.052 17 99.5 17H19.8323C19.2801 17 18.8323 17.4477 18.8323 18V25.5303C18.8323 26.0826 18.3846 26.5303 17.8323 26.5303H11.0485C10.4963 26.5303 10.0485 26.9781 10.0485 27.5303V35.9475C10.0485 36.4998 9.60083 36.9475 9.04855 36.9475H1.5C0.947715 36.9475 0.5 37.3952 0.5 37.9475V81.9541C0.5 82.5063 0.947715 82.9541 1.5 82.9541H81.1676C81.7199 82.9541 82.1676 82.5063 82.1676 81.9541V73.5369C82.1676 72.9846 82.6154 72.5369 83.1676 72.5369H90.7162C91.2685 72.5369 91.7162 72.0892 91.7162 71.5369V64.0065C91.7162 63.4543 92.1639 63.0065 92.7162 63.0065H99.4989C100.051 63.0065 100.499 62.5588 100.499 62.0066L100.5 18ZM78.9544 78.7409C78.9544 79.2931 78.5067 79.7409 77.9544 79.7409H4.7132C4.16091 79.7409 3.7132 79.2931 3.7132 78.7409V41.1607C3.7132 40.6084 4.16091 40.1607 4.71319 40.1607H77.9544C78.5067 40.1607 78.9544 40.6084 78.9544 41.1607V78.7409ZM88.503 68.3248C88.503 68.8771 88.0553 69.3248 87.503 69.3248H83.1676C82.6154 69.3248 82.1676 68.877 82.1676 68.3248V37.9475C82.1676 37.3952 81.7199 36.9475 81.1676 36.9475H14.2617C13.7095 36.9475 13.2617 36.4998 13.2617 35.9475V30.7435C13.2617 30.1912 13.7095 29.7435 14.2617 29.7435H87.504C88.0563 29.7435 88.5041 30.1913 88.504 30.7436L88.503 68.3248ZM97.2868 58.7933C97.2868 59.3456 96.8391 59.7933 96.2868 59.7933H92.7173C92.165 59.7933 91.7173 59.3456 91.7173 58.7933V27.5303C91.7173 26.9781 91.2695 26.5303 90.7173 26.5303H23.0455C22.4933 26.5303 22.0455 26.0826 22.0455 25.5303V21.2132C22.0455 20.6609 22.4933 20.2132 23.0455 20.2132H96.2868C96.8391 20.2132 97.2868 20.6609 97.2868 21.2132V58.7933Z" fill="#262627"/>
</g>
<defs>
<clipPath id="clip0_263_435">
<rect width="100" height="100" fill="white" transform="translate(0.5)"/>
</clipPath>
</defs>
</svg>
