<svg width="101" height="100" viewBox="0 0 101 100" fill="none" xmlns="http://www.w3.org/2000/svg">
<path d="M88.9945 12.3329C88.1868 11.5239 87.2153 10.8988 86.1458 10.4999C85.0763 10.101 83.9339 9.93778 82.796 10.0212C69.5106 11.0197 57.0299 16.7964 47.6459 26.2906L46.4128 27.5505H30.3274C30.1099 27.5506 29.8946 27.5943 29.6941 27.679C29.4936 27.7636 29.3119 27.8875 29.1597 28.0435L12.103 45.5727C11.8774 45.8038 11.7248 46.0965 11.6643 46.4142C11.6037 46.732 11.6379 47.0606 11.7626 47.3589C11.8873 47.6573 12.0969 47.912 12.3652 48.0912C12.6334 48.2704 12.9484 48.3662 13.2707 48.3664H28.9633L33.1647 52.5844C26.7902 52.8193 20.7465 55.4925 16.2717 60.0563C2.90355 73.6414 13.4344 89.1439 13.5435 89.2972C13.743 89.5841 14.0284 89.7996 14.3583 89.9123C14.6881 90.0251 15.0452 90.0292 15.3776 89.9241C15.71 89.8189 16.0003 89.6101 16.2062 89.3279C16.4122 89.0457 16.523 88.7049 16.5227 88.355C16.5227 83.0853 21.4444 78.0895 26.6388 78.0895C29.1328 78.104 31.5192 79.111 33.2745 80.8897C35.0298 82.6683 36.0107 85.0734 36.002 87.5772C36.0071 87.8742 36.0923 88.1643 36.2485 88.4166C36.4048 88.6689 36.6262 88.874 36.8893 89.01C37.1524 89.146 37.4473 89.2079 37.7427 89.189C38.038 89.1701 38.3227 89.0712 38.5665 88.9028C41.7123 86.4518 44.2625 83.3154 46.0243 79.7302C47.7862 76.1451 48.7139 72.205 48.7372 68.2074L53.1023 72.5897V88.355C53.1026 88.6799 53.1988 88.9973 53.3787 89.2673C53.5585 89.5373 53.8141 89.7477 54.113 89.8719C54.4119 89.9962 54.7409 90.0288 55.0582 89.9655C55.3755 89.9022 55.6671 89.7459 55.896 89.5163L73.3564 71.9871C73.6582 71.6846 73.8305 71.2758 73.8366 70.8477V55.0823L75.0916 53.8443C84.5484 44.4234 90.3025 31.8935 91.2971 18.5558C91.3802 17.4134 91.2176 16.2665 90.8203 15.1928C90.423 14.1191 89.8003 13.1437 88.9945 12.3329ZM31.0149 30.8372H43.139L28.9524 45.0797H17.1556L31.0149 30.8372ZM38.8502 84.3343C38.1464 81.615 36.5655 79.2062 34.3545 77.4838C32.1434 75.7615 29.4265 74.8226 26.6279 74.8137C21.2588 74.8137 16.2608 78.6044 14.2092 83.5783C12.2994 78.7906 10.7607 70.3218 18.5743 62.4008C20.8927 60.0338 23.7192 58.2299 26.8379 57.1267C29.9566 56.0235 33.2852 55.6503 36.5695 56.0355L45.2997 64.8001C45.7415 68.3328 45.3917 71.92 44.2759 75.2996C43.1601 78.6792 41.3064 81.7659 38.8502 84.3343ZM70.5628 70.1684L56.3762 84.411V72.6116L70.5628 58.3691V70.1684ZM72.7453 51.5436L71.0429 53.2527L70.9884 53.3075L54.7392 69.5987L31.9534 46.7231L48.2243 30.388L48.2789 30.3332L49.9813 28.646C58.7986 19.708 70.5309 14.2621 83.0252 13.308C83.6966 13.2475 84.3731 13.3358 85.0068 13.5666C85.6406 13.7974 86.2161 14.1651 86.6928 14.6436C87.1695 15.1222 87.5357 15.7 87.7656 16.3362C87.9955 16.9725 88.0834 17.6516 88.0232 18.3257C87.0728 30.8691 81.6483 42.6477 72.7453 51.4998V51.5436Z" fill="#262627"/>
<path d="M62.6817 29.0909C60.6837 29.092 58.7478 29.7857 57.204 31.0541C55.6601 32.3224 54.6038 34.0867 54.2149 36.0465C53.8261 38.0063 54.1288 40.0403 55.0715 41.802C56.0142 43.5636 57.5385 44.9439 59.3848 45.7077C61.231 46.4715 63.285 46.5715 65.1967 45.9907C67.1085 45.4099 68.7597 44.1842 69.869 42.5225C70.9784 40.8607 71.4772 38.8657 71.2806 36.8774C71.084 34.8891 70.2041 33.0305 68.7908 31.6182C67.9901 30.8139 67.038 30.1765 65.9893 29.7427C64.9407 29.3089 63.8165 29.0873 62.6817 29.0909ZM66.8635 41.9091C65.8977 42.8765 64.6263 43.4792 63.266 43.6143C61.9057 43.7495 60.5406 43.4089 59.4032 42.6504C58.2659 41.892 57.4267 40.7627 57.0287 39.4549C56.6306 38.1472 56.6983 36.7418 57.2201 35.4784C57.742 34.2149 58.6858 33.1714 59.8907 32.5258C61.0956 31.8801 62.4872 31.6722 63.8282 31.9374C65.1692 32.2026 66.3768 32.9246 67.2452 33.9804C68.1136 35.0361 68.5892 36.3603 68.5908 37.7273C68.5937 38.5039 68.4425 39.2734 68.146 39.9912C67.8495 40.709 67.4136 41.3609 66.8635 41.9091Z" fill="#262627"/>
<circle cx="62.6825" cy="37.7273" r="5.90909" fill="#FCE000"/>
</svg>
