<svg width="101" height="100" viewBox="0 0 101 100" fill="none" xmlns="http://www.w3.org/2000/svg">
<g clip-path="url(#clip0_263_423)">
<path d="M99.4377 60.1342C97.842 57.878 94.9346 57.0906 92.4784 58.0175C92.3775 57.0272 92.0493 56.0715 91.459 55.2357C89.5861 52.5737 85.8762 51.9235 83.2344 53.7566L82.2544 54.393C82.1327 53.4603 81.8149 52.5599 81.256 51.7667C79.3784 49.1094 75.6697 48.4592 72.9861 50.3211C72.956 50.3418 72.9339 50.3672 72.9061 50.3902C72.8945 50.3995 72.8806 50.4006 72.869 50.411C65.077 56.8935 55.564 63.5974 53.1298 63.5974C51.3276 63.5974 45.8422 60.5434 41.4365 58.089C35.8189 54.9613 30.5133 52.0065 27.4691 51.7725C21.7529 51.3598 4.30639 61.4277 2.33258 62.5794C1.53007 63.0474 1.26102 64.0735 1.73185 64.8713C2.20269 65.6679 3.23483 65.9365 4.03734 65.4684C11.1417 61.3228 23.6873 54.8333 27.2093 55.1146C29.5125 55.291 34.9723 58.3311 39.7886 61.0138C46.1426 64.5519 50.2525 66.7354 52.7876 66.9141C52.8978 66.9372 53.0126 66.9487 53.1298 66.9487H64.692C66.8003 66.9487 68.5166 68.6549 68.5166 70.7531C68.5166 72.8513 66.8015 74.5599 64.692 74.5599C64.6757 74.5599 64.6606 74.5645 64.6444 74.5645C64.6201 74.5656 64.598 74.561 64.5737 74.5633C64.46 74.5725 53.1576 75.3542 48.4968 74.5818C44.1293 73.8578 38.5477 68.9316 38.492 68.882C37.7985 68.263 36.7328 68.3229 36.1135 69.0123C35.493 69.7017 35.551 70.76 36.2434 71.3768C36.5008 71.6062 42.6066 77.0028 47.9424 77.887C49.6854 78.1752 52.1788 78.2698 54.7162 78.2698C59.5267 78.2698 64.496 77.9274 64.8102 77.9054C64.8114 77.9054 64.8126 77.9054 64.8137 77.9054C68.7242 77.8397 71.8867 74.6602 71.8867 70.7543C71.8867 66.8092 68.6593 63.5997 64.692 63.5997H60.7432C66.4373 60.0258 73.0012 54.6685 74.9414 53.0568C76.1022 52.2705 77.691 52.553 78.4959 53.692C78.889 54.25 79.0398 54.9279 78.9192 55.6011C78.7985 56.2744 78.4251 56.8589 77.865 57.2497C77.836 57.2705 77.8128 57.2958 77.785 57.3177C77.7281 57.3627 77.6702 57.4065 77.6215 57.4572C77.5913 57.4884 77.5669 57.523 77.5391 57.5552C77.4962 57.6071 77.4521 57.6578 77.4162 57.7132C77.3918 57.7512 77.3733 57.7916 77.3524 57.8308C77.3223 57.8861 77.2909 57.9403 77.2677 57.9991C77.2504 58.0429 77.2399 58.089 77.226 58.134C77.2086 58.1916 77.1889 58.2469 77.1773 58.3057C77.168 58.3542 77.1657 58.4037 77.161 58.4522C77.1553 58.5098 77.1471 58.5663 77.1471 58.6239C77.1471 58.6758 77.1553 58.7277 77.1599 58.7796C77.1657 58.8349 77.168 58.8891 77.1784 58.9433C77.1889 58.9986 77.2086 59.0528 77.226 59.1081C77.2411 59.1577 77.2538 59.2073 77.2735 59.2569C77.2967 59.3133 77.3292 59.3664 77.3594 59.4206C77.3802 59.4586 77.3953 59.499 77.4197 59.537C77.4243 59.5439 77.4301 59.5497 77.4347 59.5566C77.4405 59.5647 77.4429 59.5739 77.4487 59.5808C77.4661 59.605 77.4892 59.6223 77.5066 59.6454C77.5635 59.7191 77.6238 59.7872 77.691 59.8494C77.7247 59.8805 77.7595 59.9071 77.7942 59.9347C77.8592 59.9843 77.9253 60.0293 77.9949 60.0696C78.0343 60.0927 78.0726 60.1146 78.1143 60.133C78.1909 60.1688 78.2709 60.1964 78.3509 60.2195C78.388 60.2299 78.4228 60.2448 78.4599 60.2529C78.5759 60.2783 78.6942 60.2933 78.8136 60.2944C78.8194 60.2944 78.8241 60.2967 78.8287 60.2967C78.8438 60.2967 78.8588 60.2898 78.8739 60.2898C79.0026 60.2864 79.1302 60.2656 79.2566 60.2322C79.2949 60.2218 79.3332 60.2126 79.3714 60.1999C79.5013 60.1549 79.6289 60.1007 79.7495 60.0223L85.1178 56.5338C86.2821 55.7291 87.886 56.0081 88.6966 57.161C89.0897 57.7166 89.2416 58.3922 89.1222 59.062C89.0027 59.7353 88.627 60.3209 88.0646 60.7129L86.3412 61.913C85.5793 62.4445 85.3949 63.489 85.9284 64.2464C86.2566 64.711 86.7784 64.96 87.3096 64.96C87.6436 64.96 87.981 64.862 88.2756 64.6568L89.9711 63.4751L93.0965 61.4381C94.2585 60.6322 95.8647 60.9112 96.6742 62.0571C97.4859 63.2134 97.2007 64.8113 96.0386 65.6172C96.0375 65.6183 96.0363 65.6195 96.034 65.6206C77.7444 78.385 56.9997 91.6117 53.9462 91.6486C51.6766 91.6486 46.6621 88.6766 42.2367 86.055C37.2442 83.0968 32.5288 80.3022 29.1982 79.8607C22.5485 78.9834 12.3095 86.6441 11.1637 87.5214C10.4261 88.0852 10.2893 89.1366 10.8552 89.8698C11.4223 90.6042 12.4811 90.7402 13.2187 90.1764C16.0263 88.0321 24.288 82.5884 28.7529 83.1832C31.397 83.5337 36.2387 86.402 40.5111 88.9337C45.7761 92.0533 50.7477 95 53.945 95C59.5197 95 91.5993 72.8098 97.9742 68.3621C98.0704 68.2952 98.1562 68.2203 98.234 68.1385C100.68 66.2178 101.247 62.7143 99.4377 60.1342Z" fill="#262627"/>
<ellipse cx="54.9439" cy="43.4218" rx="9.34718" ry="9.29202" fill="#FCE000"/>
<ellipse cx="39.7554" cy="16.7072" rx="9.34718" ry="9.29202" fill="#FCE000"/>
<ellipse cx="69.5487" cy="16.1265" rx="7.59458" ry="7.54976" fill="#FCE000"/>
<path d="M39.8991 29.3645C46.6566 29.3645 52.1536 23.8999 52.1536 17.1822C52.1536 10.4645 46.6555 5 39.8991 5C33.1427 5 27.6445 10.4645 27.6445 17.1822C27.6445 23.8999 33.1415 29.3645 39.8991 29.3645ZM39.8991 8.3502C44.7988 8.3502 48.7835 12.3126 48.7835 17.1822C48.7835 22.0519 44.7976 26.0143 39.8991 26.0143C35.0005 26.0143 31.0146 22.0519 31.0146 17.1822C31.0146 12.3126 35.0005 8.3502 39.8991 8.3502Z" fill="#262627"/>
<path d="M70.2008 26.5422C75.3927 26.5422 79.6164 22.3435 79.6164 17.1822C79.6164 12.0208 75.3916 7.82214 70.2008 7.82214C65.0099 7.82214 60.7852 12.0208 60.7852 17.1822C60.7852 22.3435 65.0088 26.5422 70.2008 26.5422ZM70.2008 11.1723C73.5337 11.1723 76.2463 13.8677 76.2463 17.1822C76.2463 20.4966 73.5337 23.192 70.2008 23.192C66.8678 23.192 64.1552 20.4966 64.1552 17.1822C64.1552 13.8677 66.8678 11.1723 70.2008 11.1723Z" fill="#262627"/>
<path d="M42.3477 43.2506C42.3477 49.9671 47.8446 55.4317 54.5999 55.4317C61.3563 55.4317 66.8533 49.9671 66.8533 43.2506C66.8533 36.5341 61.3563 31.0695 54.5999 31.0695C47.8446 31.0695 42.3477 36.5341 42.3477 43.2506ZM54.601 34.4197C59.4996 34.4197 63.4843 38.3809 63.4843 43.2506C63.4843 48.1203 59.4985 52.0815 54.601 52.0815C49.7036 52.0815 45.7189 48.1203 45.7189 43.2506C45.7189 38.3809 49.7025 34.4197 54.601 34.4197Z" fill="#262627"/>
</g>
<defs>
<clipPath id="clip0_263_423">
<rect width="100" height="100" fill="white" transform="translate(0.5)"/>
</clipPath>
</defs>
</svg>
