<svg width="139" height="40" viewBox="0 0 139 40" fill="none" xmlns="http://www.w3.org/2000/svg">
<g clip-path="url(#clip0_367_180)">
<path d="M0 5.33358C0 2.38806 2.4453 0.000244141 5.46173 0.000244141H132.72C135.737 0.000244141 138.182 2.38806 138.182 5.33358V34.6669C138.182 37.6125 135.737 40.0002 132.72 40.0002H5.46173C2.4453 40.0002 0 37.6125 0 34.6669V5.33358Z" fill="#262627"/>
<path fill-rule="evenodd" clip-rule="evenodd" d="M0 34.6669V5.33358C0 2.38806 2.4453 0.000244141 5.46173 0.000244141H132.72C135.737 0.000244141 138.182 2.38806 138.182 5.33358V34.6669C138.182 37.6125 135.737 40.0002 132.72 40.0002H5.46173C2.4453 40.0002 0 37.6125 0 34.6669ZM0.81926 34.6669V5.33358C0.81926 2.8299 2.89778 0.800244 5.46173 0.800244H132.72C135.284 0.800244 137.363 2.8299 137.363 5.33358V34.6669C137.363 37.1706 135.284 39.2002 132.72 39.2002H5.46173C2.89778 39.2002 0.81926 37.1706 0.81926 34.6669Z" fill="white" fill-opacity="0.3"/>
<path d="M31.2258 20.8149C31.2116 18.4705 32.2993 16.7036 34.496 15.4008C33.2674 13.6821 31.4088 12.7368 28.9587 12.5546C26.6388 12.3758 24.1007 13.8746 23.1714 13.8746C22.1892 13.8746 19.9433 12.6164 18.1761 12.6164C14.5291 12.6714 10.6533 15.4558 10.6533 21.1208C10.6533 22.7949 10.9666 24.524 11.5932 26.3046C12.4311 28.649 15.4514 34.393 18.6021 34.3002C20.2496 34.2623 21.4148 33.1589 23.5586 33.1589C25.6391 33.1589 26.7162 34.3002 28.554 34.3002C31.7327 34.2554 34.4644 29.0341 35.2599 26.6826C30.997 24.7199 31.2258 20.9352 31.2258 20.8149ZM27.5258 10.3305C29.3107 8.26113 29.1487 6.3774 29.096 5.7002C27.519 5.78958 25.6954 6.74862 24.6569 7.92769C23.5128 9.1927 22.8405 10.7568 22.9848 12.5202C24.6886 12.6474 26.2445 11.7914 27.5258 10.3305Z" fill="white"/>
<path d="M50.4535 28.9462H48.6454L47.6549 25.8931H44.2126L43.2691 28.9462H41.5088L44.9194 18.5522H47.026L50.4535 28.9462ZM47.3564 24.6123L46.4607 21.8982C46.3662 21.6209 46.1884 20.968 45.9265 19.9401H45.8948C45.7905 20.3822 45.6226 21.0352 45.3915 21.8982L44.5119 24.6123H47.3564Z" fill="white"/>
<path d="M59.2251 25.1065C59.2251 26.3811 58.8742 27.3886 58.1718 28.1283C57.5429 28.7867 56.7619 29.1155 55.8296 29.1155C54.8232 29.1155 54.1004 28.7609 53.6602 28.0518H53.6282V31.9998H51.931V23.9185C51.931 23.1171 51.9094 22.2948 51.8682 21.4512H53.3609L53.4556 22.6392H53.4873C54.0534 21.7441 54.9125 21.2974 56.0652 21.2974C56.9664 21.2974 57.7188 21.6465 58.3207 22.3455C58.9242 23.0453 59.2251 23.9654 59.2251 25.1065ZM57.4959 25.1674C57.4959 24.4379 57.3288 23.8365 56.9929 23.3632C56.6259 22.8696 56.133 22.6228 55.5152 22.6228C55.0963 22.6228 54.7159 22.7602 54.3759 23.0313C54.0351 23.3046 53.8123 23.6615 53.7079 24.1036C53.6555 24.3098 53.629 24.4785 53.629 24.6113V25.8609C53.629 26.4061 53.7994 26.8662 54.1402 27.2417C54.4811 27.6174 54.9237 27.8049 55.4683 27.8049C56.1076 27.8049 56.6051 27.5627 56.961 27.0801C57.3176 26.5966 57.4959 25.9593 57.4959 25.1674Z" fill="white"/>
<path d="M68.0127 25.1065C68.0127 26.3811 67.6615 27.3886 66.9585 28.1283C66.3304 28.7867 65.5494 29.1155 64.6171 29.1155C63.6108 29.1155 62.8879 28.7609 62.4485 28.0518H62.4166V31.9998H60.7193V23.9185C60.7193 23.1171 60.6978 22.2948 60.6562 21.4512H62.1492L62.2437 22.6392H62.2757C62.8409 21.7441 63.7001 21.2974 64.8536 21.2974C65.754 21.2974 66.5063 21.6465 67.1098 22.3455C67.7109 23.0453 68.0127 23.9654 68.0127 25.1065ZM66.2835 25.1674C66.2835 24.4379 66.1155 23.8365 65.7796 23.3632C65.4126 22.8696 64.9213 22.6228 64.3028 22.6228C63.883 22.6228 63.5034 22.7602 63.1626 23.0313C62.8218 23.3046 62.5998 23.6615 62.4955 24.1036C62.4436 24.3098 62.4166 24.4785 62.4166 24.6113V25.8609C62.4166 26.4061 62.587 26.8662 62.9261 27.2417C63.267 27.6166 63.7096 27.8049 64.2558 27.8049C64.8951 27.8049 65.3927 27.5627 65.7485 27.0801C66.1051 26.5966 66.2835 25.9593 66.2835 25.1674Z" fill="white"/>
<path d="M77.8366 26.0313C77.8366 26.9154 77.5236 27.6348 76.8955 28.19C76.2054 28.797 75.2445 29.0999 74.0096 29.0999C72.8694 29.0999 71.9554 28.8844 71.2637 28.4524L71.6569 27.0647C72.4022 27.5068 73.2198 27.7284 74.1106 27.7284C74.7499 27.7284 75.2475 27.5863 75.6049 27.3036C75.9608 27.021 76.1385 26.6413 76.1385 26.168C76.1385 25.7463 75.9919 25.3909 75.6981 25.1027C75.4059 24.8145 74.9178 24.5466 74.2365 24.299C72.3814 23.6203 71.4548 22.6261 71.4548 21.3186C71.4548 20.4642 71.7795 19.7636 72.43 19.2184C73.0781 18.6725 73.9427 18.3999 75.0238 18.3999C75.9881 18.3999 76.7888 18.5647 77.4281 18.8935L77.004 20.2509C76.4067 19.9323 75.7316 19.7729 74.976 19.7729C74.379 19.7729 73.9123 19.9174 73.5781 20.2049C73.2954 20.4618 73.1537 20.775 73.1537 21.146C73.1537 21.5568 73.3154 21.8966 73.6401 22.1637C73.9227 22.4105 74.4364 22.6776 75.1814 22.9658C76.0929 23.3258 76.7626 23.7468 77.1932 24.2295C77.6225 24.7106 77.8366 25.3128 77.8366 26.0313Z" fill="white"/>
<path d="M83.4485 22.7011H81.5776V26.3399C81.5776 27.2654 81.9072 27.7278 82.568 27.7278C82.8714 27.7278 83.123 27.702 83.322 27.6505L83.369 28.915C83.0345 29.0374 82.5943 29.0993 82.0489 29.0993C81.3785 29.0993 80.8547 28.8985 80.4765 28.498C80.0999 28.0964 79.9106 27.423 79.9106 26.4773V22.6995H78.7959V21.4499H79.9106V20.0776L81.5776 19.584V21.4499H83.4485V22.7011Z" fill="white"/>
<path d="M91.8901 25.1371C91.8901 26.2891 91.5542 27.235 90.8838 27.9747C90.1808 28.736 89.2477 29.1158 88.0846 29.1158C86.9636 29.1158 86.0711 28.751 85.4056 28.0214C84.7398 27.292 84.4072 26.3711 84.4072 25.2613C84.4072 24.0999 84.7494 23.1486 85.4365 22.409C86.1219 21.6686 87.0472 21.2983 88.2102 21.2983C89.3313 21.2983 90.2333 21.6631 90.9141 22.3934C91.5654 23.1018 91.8901 24.0163 91.8901 25.1371ZM90.1289 25.191C90.1289 24.4998 89.9785 23.907 89.6737 23.4126C89.3179 22.8143 88.8091 22.516 88.1499 22.516C87.4674 22.516 86.9491 22.8151 86.5933 23.4126C86.2885 23.9078 86.1381 24.5099 86.1381 25.2222C86.1381 25.9135 86.2885 26.5063 86.5933 26.9998C86.9603 27.5982 87.4732 27.8966 88.1346 27.8966C88.7829 27.8966 89.2914 27.592 89.6584 26.9843C89.9714 26.4805 90.1289 25.8814 90.1289 25.191Z" fill="white"/>
<path d="M97.4076 22.9157C97.2397 22.8852 97.0605 22.8696 96.8726 22.8696C96.2754 22.8696 95.8139 23.0906 95.4889 23.5334C95.2063 23.924 95.0645 24.4176 95.0645 25.0135V28.9459H93.3681L93.3839 23.8115C93.3839 22.9477 93.3624 22.1612 93.3203 21.452H94.7985L94.8608 22.886H94.9078C95.0869 22.3931 95.3696 21.9964 95.7565 21.6988C96.1345 21.4309 96.543 21.2974 96.9832 21.2974C97.1402 21.2974 97.2817 21.3083 97.4076 21.3278V22.9157Z" fill="white"/>
<path d="M104.997 24.8442C104.997 25.1425 104.978 25.394 104.935 25.5994H99.8433C99.8632 26.3398 100.109 26.906 100.582 27.2967C101.011 27.6458 101.566 27.8207 102.248 27.8207C103.002 27.8207 103.689 27.7028 104.308 27.466L104.574 28.622C103.851 28.9314 102.998 29.0852 102.013 29.0852C100.828 29.0852 99.8984 28.7431 99.2217 28.0596C98.5464 27.3762 98.208 26.4585 98.208 25.3073C98.208 24.1772 98.5226 23.236 99.1523 22.4854C99.8116 21.6841 100.702 21.2834 101.823 21.2834C102.924 21.2834 103.758 21.6841 104.324 22.4854C104.772 23.122 104.997 23.9093 104.997 24.8442ZM103.379 24.4122C103.39 23.9186 103.279 23.4922 103.05 23.1321C102.756 22.669 102.304 22.4378 101.697 22.4378C101.142 22.4378 100.69 22.6635 100.346 23.1165C100.063 23.4766 99.8951 23.9085 99.8433 24.4115H103.379V24.4122Z" fill="white"/>
<path d="M43.2589 11.9878H44.1336C44.9785 11.9878 45.4736 12.3586 45.4736 12.9836V12.992C45.4736 13.5711 44.9529 13.9503 44.1593 13.9503C43.3485 13.9503 42.8323 13.6378 42.7641 13.0836L42.7597 13.0503H41.8252L41.8296 13.1003C41.8935 14.092 42.7982 14.7669 44.1593 14.7669C45.4777 14.7669 46.4507 14.0253 46.4507 13.0336V13.0253C46.4507 12.2169 45.9428 11.6461 45.1194 11.5461V11.5128C45.8022 11.3586 46.2629 10.8003 46.2629 10.1336V10.1253C46.2629 9.19612 45.4179 8.55444 44.1806 8.55444C42.8919 8.55444 42.0513 9.17527 41.9874 10.192L41.983 10.2503H42.9006L42.9047 10.192C42.9773 9.67527 43.4255 9.37111 44.1508 9.37111C44.889 9.37111 45.3158 9.69196 45.3158 10.2253V10.2336C45.3158 10.8086 44.842 11.2044 44.1082 11.2044H43.2589V11.9878Z" fill="white"/>
<path d="M49.5408 14.746C50.1381 14.746 50.6545 14.446 50.9147 13.9752H50.936V14.6669H51.8577V11.646C51.8577 10.7669 51.1622 10.2002 50.0657 10.2002C48.9605 10.2002 48.2907 10.7794 48.2265 11.5335L48.2224 11.5794H49.0927L49.1012 11.5418C49.1782 11.1919 49.5067 10.946 50.0401 10.946C50.6119 10.946 50.936 11.2377 50.936 11.721V12.0502L49.7115 12.121C48.6489 12.1835 48.043 12.6502 48.043 13.4127V13.421C48.043 14.2085 48.6446 14.746 49.5408 14.746ZM48.9734 13.4002V13.3919C48.9734 13.021 49.2806 12.7835 49.8352 12.7502L50.936 12.6835V13.0252C50.936 13.596 50.4412 14.0252 49.7926 14.0252C49.2975 14.0252 48.9734 13.7835 48.9734 13.4002Z" fill="white"/>
<path d="M56.7659 11.0001V10.2834H53.792V14.6668H54.7137V11.0001H56.7659Z" fill="white"/>
<path d="M58.5 16.1252H59.4217V13.9294H59.443C59.7076 14.4377 60.224 14.7544 60.8597 14.7544C61.9862 14.7544 62.7244 13.8752 62.7244 12.4794V12.4752C62.7244 11.0752 61.9903 10.2002 60.8469 10.2002C60.2068 10.2002 59.712 10.5169 59.443 11.0377H59.4217V10.2835H58.5V16.1252ZM60.608 13.9794C59.9124 13.9794 59.4176 13.3877 59.4176 12.4794V12.4752C59.4176 11.5627 59.908 10.971 60.608 10.971C61.3333 10.971 61.7855 11.5418 61.7855 12.4752V12.4794C61.7855 13.4044 61.3333 13.9794 60.608 13.9794Z" fill="white"/>
<path d="M64.8883 16.1293C65.7674 16.1293 66.2368 15.7793 66.5697 14.8709L68.2424 10.2834H67.2694L66.1385 13.8501H66.1087L64.9779 10.2834H63.9795L65.6139 14.6709L65.5369 14.8793C65.3834 15.3043 65.1445 15.4168 64.7092 15.4168C64.5855 15.4168 64.4787 15.4001 64.4063 15.3834V16.0876C64.5172 16.1084 64.7092 16.1293 64.8883 16.1293Z" fill="white"/>
<path d="M71.4098 14.7544C72.5106 14.7544 73.2403 14.2085 73.2403 13.3919V13.3835C73.2403 12.871 72.9159 12.521 72.3228 12.4044V12.371C72.805 12.2627 73.1166 11.8919 73.1166 11.421V11.4127C73.1166 10.6627 72.485 10.2002 71.4524 10.2002C70.4412 10.2002 69.7798 10.6669 69.673 11.446L69.6689 11.4794H70.5477L70.5521 11.4502C70.6203 11.1169 70.9573 10.9127 71.4396 10.9127C71.926 10.9127 72.2163 11.1335 72.2163 11.5085V11.5169C72.2163 11.9085 71.9388 12.1085 71.397 12.1085H70.7525V12.7627H71.4011C72.0243 12.7627 72.3228 12.9627 72.3228 13.3835V13.3919C72.3228 13.7919 71.9729 14.0377 71.4055 14.0377C70.8978 14.0377 70.5649 13.846 70.4625 13.4919L70.4497 13.4502H69.5449L69.5493 13.4877C69.6389 14.2627 70.3601 14.7544 71.4098 14.7544Z" fill="white"/>
<path d="M75.0127 14.6668H75.9215L77.9822 11.5876H78.0207V14.6668H78.938V10.2834H78.0292L75.9685 13.3501H75.9256V10.2834H75.0127V14.6668Z" fill="white"/>
<path d="M84.3027 10.2834H80.5693V11.0001H81.973V14.6668H82.899V11.0001H84.3027V10.2834Z" fill="white"/>
<path d="M87.7688 14.7544C88.857 14.7544 89.5526 14.121 89.6932 13.4252L89.706 13.3794H88.827L88.8144 13.4127C88.6992 13.7419 88.3365 14.0169 87.7903 14.0169C87.0563 14.0169 86.5912 13.5335 86.574 12.7044H89.753V12.4002C89.753 11.0835 88.9807 10.2002 87.7221 10.2002C86.4631 10.2002 85.6523 11.1169 85.6523 12.4877V12.4919C85.6523 13.8752 86.4503 14.7544 87.7688 14.7544ZM87.7262 10.9377C88.3278 10.9377 88.7674 11.3085 88.8398 12.0669H86.5868C86.6723 11.3335 87.1289 10.9377 87.7262 10.9377Z" fill="white"/>
<path d="M94.2441 14.6668H96.3095C97.2822 14.6668 97.8882 14.1751 97.8882 13.4084V13.4001C97.8882 12.8626 97.5043 12.4709 96.9239 12.396V12.3626C97.3549 12.2834 97.6878 11.8709 97.6878 11.4168V11.4084C97.6878 10.7126 97.1585 10.2834 96.2838 10.2834H94.2441V14.6668ZM95.1573 12.0918V10.9501H96.0919C96.5356 10.9501 96.7746 11.146 96.7746 11.5084V11.5168C96.7746 11.9043 96.5184 12.0918 95.9979 12.0918H95.1573ZM95.1573 14.0001V12.746H96.032C96.638 12.746 96.9409 12.9418 96.9409 13.3626V13.3709C96.9409 13.7876 96.6593 14.0001 96.1388 14.0001H95.1573Z" fill="white"/>
</g>
<defs>
<clipPath id="clip0_367_180">
<rect width="138.182" height="40" fill="white"/>
</clipPath>
</defs>
</svg>
