<svg width="139" height="40" viewBox="0 0 139 40" fill="none" xmlns="http://www.w3.org/2000/svg">
<g clip-path="url(#clip0_367_202)">
<path d="M0.181641 5.33358C0.181641 2.38806 2.62694 0.000244141 5.64337 0.000244141H132.902C135.918 0.000244141 138.363 2.38806 138.363 5.33358V34.6669C138.363 37.6125 135.918 40.0003 132.902 40.0003H5.64337C2.62694 40.0003 0.181641 37.6125 0.181641 34.6669V5.33358Z" fill="#262627"/>
<path fill-rule="evenodd" clip-rule="evenodd" d="M0.181641 34.6669V5.33358C0.181641 2.38806 2.62694 0.000244141 5.64337 0.000244141H132.902C135.918 0.000244141 138.363 2.38806 138.363 5.33358V34.6669C138.363 37.6125 135.918 40.0003 132.902 40.0003H5.64337C2.62694 40.0003 0.181641 37.6125 0.181641 34.6669ZM1.0009 34.6669V5.33358C1.0009 2.8299 3.07942 0.800244 5.64337 0.800244H132.902C135.466 0.800244 137.544 2.8299 137.544 5.33358V34.6669C137.544 37.1707 135.466 39.2003 132.902 39.2003H5.64337C3.07942 39.2003 1.0009 37.1707 1.0009 34.6669Z" fill="white" fill-opacity="0.3"/>
<path d="M70.1976 21.7308C67.7384 21.7308 65.7067 23.6061 65.7067 26.1773C65.7067 28.7275 67.7171 30.6238 70.1976 30.6238C72.678 30.6238 74.6882 28.7483 74.6882 26.1773C74.6882 23.6061 72.678 21.7308 70.1976 21.7308ZM70.1976 28.8544C68.8499 28.8544 67.6745 27.7371 67.6745 26.1574C67.6745 24.5558 68.8507 23.4605 70.1976 23.4605C71.5442 23.4605 72.7204 24.5558 72.7204 26.1574C72.7204 27.7371 71.5442 28.8544 70.1976 28.8544ZM60.4246 21.7308C57.9442 21.7308 55.9337 23.6061 55.9337 26.1773C55.9337 28.7275 57.9442 30.6238 60.4246 30.6238C62.9051 30.6238 64.9155 28.7483 64.9155 26.1773C64.9155 23.6061 62.9051 21.7308 60.4244 21.7308H60.4246ZM60.4246 28.8544C59.077 28.8544 57.9019 27.7371 57.9019 26.1574C57.9019 24.5558 59.078 23.4605 60.4246 23.4605C61.7723 23.4605 62.9477 24.5558 62.9477 26.1574C62.9477 27.7371 61.7923 28.8544 60.4246 28.8544ZM48.8127 23.1007V24.976H53.346C53.2171 26.0296 52.8547 26.8094 52.3197 27.3366C51.6569 27.9896 50.6304 28.7064 48.8127 28.7064C46.0108 28.7064 43.8518 26.4728 43.8518 23.712C43.8518 20.9511 46.0119 18.6753 48.8127 18.6753C50.3305 18.6753 51.4218 19.2655 52.2345 20.0245L53.5811 18.6963C52.4472 17.622 50.9294 16.8003 48.8127 16.8003C44.9843 16.8003 41.7764 19.8976 41.7764 23.67C41.7764 27.4427 44.9843 30.54 48.8127 30.54C50.8868 30.54 52.427 29.8659 53.6671 28.6008C54.9288 27.3576 55.3135 25.608 55.3135 24.1963C55.3135 23.754 55.2712 23.3534 55.2065 23.0161L48.8127 23.1007ZM96.3295 24.5547C95.9658 23.5641 94.8117 21.7308 92.5011 21.7308C90.1911 21.7308 88.2882 23.5223 88.2882 26.1773C88.2882 28.6635 90.1911 30.6238 92.7152 30.6238C94.768 30.6238 95.9445 29.3806 96.4357 28.6635L94.9182 27.652C94.4043 28.3902 93.7204 28.8742 92.7152 28.8742C91.71 28.8742 91.0049 28.4318 90.5548 27.5254L96.5212 25.06L96.3295 24.5547ZM90.2561 26.0515C90.2135 24.344 91.6037 23.4593 92.5863 23.4593C93.378 23.4593 94.0195 23.8387 94.2543 24.4079L90.2561 26.0515ZM85.4014 30.3291H87.3693V17.3054H85.4014V30.3291ZM82.1945 22.7214H82.1306C81.6817 22.1942 80.848 21.7308 79.778 21.7308C77.5324 21.7308 75.5009 23.691 75.5009 26.1773C75.5009 28.6635 77.5537 30.603 79.778 30.603C80.8469 30.603 81.6809 30.1392 82.1306 29.5912H82.1945V30.2232C82.1945 31.931 81.2745 32.8363 79.7993 32.8363C78.6015 32.8363 77.8527 31.9726 77.5537 31.2558L75.8437 31.9726C76.3347 33.1528 77.64 34.6067 79.7993 34.6067C82.1085 34.6067 84.0548 33.2579 84.0548 29.9918V22.0045H82.1945V22.7214ZM79.9492 28.8544C78.6016 28.8544 77.4688 27.7371 77.4688 26.1784C77.4688 24.6197 78.6026 23.4813 79.9492 23.4813C81.2756 23.4813 82.3445 24.6197 82.3445 26.1784C82.3437 27.716 81.2745 28.8544 79.9492 28.8544ZM105.504 17.3056H100.799V30.3291H102.767V25.3973H105.504C107.685 25.3973 109.823 23.8375 109.823 21.3515C109.823 18.8652 107.685 17.3054 105.504 17.3054V17.3056ZM105.567 23.5862H102.787V19.1177H105.567C107.021 19.1177 107.877 20.3189 107.877 21.3513C107.856 22.3628 107.022 23.5862 105.567 23.5862ZM117.672 21.7098C116.26 21.7098 114.785 22.3211 114.186 23.712L115.919 24.4289C116.304 23.712 116.988 23.4803 117.715 23.4803C118.742 23.4803 119.768 24.0913 119.79 25.1657V25.2926C119.426 25.0819 118.678 24.7863 117.737 24.7863C115.855 24.7863 113.951 25.8189 113.951 27.716C113.951 29.4654 115.491 30.5819 117.202 30.5819C118.528 30.5819 119.255 29.9918 119.704 29.2966H119.767V30.3083H121.67V25.3133C121.649 23.0167 119.917 21.7096 117.672 21.7096V21.7098ZM117.437 28.8334C116.795 28.8334 115.897 28.5168 115.897 27.7379C115.897 26.7264 117.008 26.3471 117.971 26.3471C118.826 26.3471 119.232 26.5367 119.767 26.7894C119.618 27.9907 118.57 28.8334 117.437 28.8334ZM128.535 22.0056L126.29 27.632H126.226L123.895 22.0054H121.779L125.285 29.8867L123.296 34.2912H125.349L130.716 22.0054H128.535L128.535 22.0056ZM110.914 30.3291H112.882V17.3054H110.914V30.3291Z" fill="white"/>
<path d="M47.7216 11.201V13.1349H46.9035V11.9999H43.1414V13.1349H42.3232V11.201H42.935C43.139 10.9223 43.2894 10.5215 43.3861 9.99887C43.483 9.47122 43.5314 8.89879 43.5314 8.28154V6.65381H47.1175V11.201H47.7216ZM46.2611 11.201V7.45274H44.3801V8.42341C44.3801 8.98093 44.3343 9.49861 44.2425 9.97647C44.1559 10.4543 44.0235 10.8625 43.8449 11.201H46.2611Z" fill="white"/>
<path d="M51.1933 12.1197C50.6629 12.1197 50.1812 11.9978 49.7481 11.7539C49.3147 11.505 48.9731 11.1665 48.7232 10.7384C48.4785 10.3103 48.3564 9.83992 48.3564 9.3272C48.3564 8.81448 48.4785 8.34659 48.7232 7.92347C48.9731 7.49539 49.3147 7.15688 49.7481 6.908C50.1812 6.65912 50.6629 6.53467 51.1933 6.53467C51.7233 6.53467 52.2026 6.65912 52.6308 6.908C53.0639 7.15688 53.4055 7.49539 53.6551 7.92347C53.905 8.34659 54.0301 8.81448 54.0301 9.3272C54.0301 9.83992 53.905 10.3103 53.6551 10.7384C53.4105 11.1665 53.0716 11.505 52.6384 11.7539C52.2051 11.9978 51.7233 12.1197 51.1933 12.1197ZM51.1933 11.3208C51.5551 11.3208 51.8864 11.2362 52.1873 11.0669C52.488 10.8977 52.725 10.6637 52.8984 10.3651C53.0716 10.0614 53.1581 9.71547 53.1581 9.3272C53.1581 8.93893 53.0716 8.59547 52.8984 8.2968C52.725 7.99315 52.488 7.75672 52.1873 7.58747C51.8864 7.41821 51.5551 7.3336 51.1933 7.3336C50.8312 7.3336 50.4999 7.41821 50.199 7.58747C49.8983 7.75672 49.6588 7.99315 49.4802 8.2968C49.3071 8.59547 49.2202 8.93893 49.2202 9.3272C49.2202 9.71547 49.3071 10.0614 49.4802 10.3651C49.6588 10.6637 49.8983 10.8977 50.199 11.0669C50.4999 11.2362 50.8312 11.3208 51.1933 11.3208Z" fill="white"/>
<path d="M57.5189 12.1197C56.9886 12.1197 56.5044 11.9978 56.0661 11.7539C55.6275 11.5099 55.2835 11.1739 55.0339 10.7459C54.784 10.3178 54.6592 9.84488 54.6592 9.3272C54.6592 8.80952 54.784 8.33661 55.0339 7.90853C55.2835 7.48045 55.6275 7.14445 56.0661 6.90053C56.5044 6.65661 56.9886 6.53467 57.5189 6.53467C57.9319 6.53467 58.3065 6.60933 58.643 6.75867C58.9843 6.908 59.2853 7.12453 59.5452 7.40827L58.9335 7.9832C58.7448 7.76419 58.5359 7.6024 58.3065 7.49787C58.0771 7.38835 57.8144 7.3336 57.5189 7.3336C57.1519 7.3336 56.8155 7.41573 56.5096 7.58C56.2087 7.74427 55.9692 7.97821 55.7909 8.28187C55.6123 8.58053 55.5232 8.92899 55.5232 9.3272C55.5232 9.72541 55.6123 10.0763 55.7909 10.38C55.9692 10.6787 56.2087 10.9101 56.5096 11.0744C56.8155 11.2387 57.1519 11.3208 57.5189 11.3208C58.1307 11.3208 58.6506 11.0719 59.0788 10.5741L59.6982 11.1565C59.433 11.4602 59.1143 11.6966 58.7424 11.8659C58.3702 12.0351 57.9624 12.1197 57.5189 12.1197Z" fill="white"/>
<path d="M61.7627 7.45274H60.2334V6.65381H64.1484V7.45274H62.6191V11.9999H61.7627V7.45274Z" fill="white"/>
<path d="M65.5669 12.1194C65.3782 12.1194 65.2176 12.0871 65.0852 12.0223V11.2085C65.2534 11.2981 65.4063 11.3429 65.544 11.3429C65.6816 11.3429 65.7911 11.318 65.8728 11.2682C65.9544 11.2135 66.0281 11.1139 66.0945 10.9695L66.2857 10.5813L64.4658 6.65381H65.4216L66.6986 9.61808H66.7445L68.0291 6.65381H68.9849L66.8897 11.1487C66.7368 11.4823 66.5508 11.7287 66.3315 11.8879C66.1174 12.0423 65.8627 12.1194 65.5669 12.1194Z" fill="white"/>
<path d="M69.7266 6.65381H73.8021V11.9999H72.9457V7.45274H70.583V11.9999H69.7266V6.65381Z" fill="white"/>
<path d="M75.0508 6.65381H75.9072V8.87141H78.4458V6.65381H79.2945V11.9999H78.4458V9.66288H75.9072V11.9999H75.0508V6.65381Z" fill="white"/>
<path d="M83.0341 12.1197C82.504 12.1197 82.0223 11.9978 81.5889 11.7539C81.1558 11.505 80.8142 11.1665 80.5643 10.7384C80.3196 10.3103 80.1973 9.83992 80.1973 9.3272C80.1973 8.81448 80.3196 8.34659 80.5643 7.92347C80.8142 7.49539 81.1558 7.15688 81.5889 6.908C82.0223 6.65912 82.504 6.53467 83.0341 6.53467C83.5644 6.53467 84.0434 6.65912 84.4716 6.908C84.905 7.15688 85.2466 7.49539 85.4962 7.92347C85.7461 8.34659 85.8709 8.81448 85.8709 9.3272C85.8709 9.83992 85.7461 10.3103 85.4962 10.7384C85.2516 11.1665 84.9127 11.505 84.4793 11.7539C84.0462 11.9978 83.5644 12.1197 83.0341 12.1197ZM83.0341 11.3208C83.3962 11.3208 83.7275 11.2362 84.0281 11.0669C84.3291 10.8977 84.5661 10.6637 84.7392 10.3651C84.9127 10.0614 84.9992 9.71547 84.9992 9.3272C84.9992 8.93893 84.9127 8.59547 84.7392 8.2968C84.5661 7.99315 84.3291 7.75672 84.0281 7.58747C83.7275 7.41821 83.3962 7.3336 83.0341 7.3336C82.6723 7.3336 82.341 7.41821 82.0401 7.58747C81.7394 7.75672 81.4999 7.99315 81.3213 8.2968C81.1482 8.59547 81.0613 8.93893 81.0613 9.3272C81.0613 9.71547 81.1482 10.0614 81.3213 10.3651C81.4999 10.6637 81.7394 10.8977 82.0401 11.0669C82.341 11.2362 82.6723 11.3208 83.0341 11.3208Z" fill="white"/>
<path d="M88.6416 6.65381H90.6985C90.9891 6.65381 91.2567 6.71602 91.5014 6.84047C91.7512 6.96493 91.95 7.13666 92.0978 7.35568C92.2458 7.57469 92.3195 7.81613 92.3195 8.07994C92.3195 8.34376 92.2507 8.57274 92.1131 8.76688C91.9806 8.96101 91.8048 9.10786 91.5855 9.20741V9.25221C91.8607 9.3468 92.0825 9.5036 92.2507 9.72261C92.4241 9.94162 92.5107 10.198 92.5107 10.4917C92.5107 10.7854 92.4318 11.0467 92.2737 11.2757C92.1207 11.5047 91.9118 11.6839 91.6466 11.8133C91.3867 11.9377 91.1013 11.9999 90.7903 11.9999H88.6416V6.65381ZM90.6603 8.89381C90.9049 8.89381 91.1013 8.81914 91.249 8.66981C91.402 8.52048 91.4784 8.34874 91.4784 8.15461C91.4784 7.96048 91.4047 7.79122 91.2567 7.64688C91.1141 7.49754 90.9254 7.42287 90.6908 7.42287H89.498V8.89381H90.6603ZM90.7903 11.2234C91.0502 11.2234 91.2567 11.1438 91.4096 10.9845C91.5677 10.8252 91.6466 10.641 91.6466 10.4319C91.6466 10.2179 91.5653 10.0337 91.402 9.87941C91.2441 9.72013 91.03 9.64048 90.7597 9.64048H89.498V11.2234H90.7903Z" fill="white"/>
<path d="M29.3176 24.2889C32.5895 22.5184 35.0699 21.1695 35.2837 21.0647C35.9675 20.7062 36.674 19.7576 35.2837 19.0208C34.8348 18.7892 32.4182 17.482 29.3176 15.7966L25.0195 20.0742L29.3173 24.2889H29.3176Z" fill="#FCE000"/>
<path d="M25.0191 20.074L11.333 33.667C11.654 33.7088 12.0167 33.6248 12.4445 33.3931C13.3423 32.9091 22.8586 27.7875 29.3174 24.2897L25.0191 20.074Z" fill="#F43249"/>
<path d="M25.0196 20.0741L29.3174 15.8173C29.3174 15.8173 13.4077 7.26109 12.4449 6.75621C12.0826 6.54392 11.6761 6.48117 11.3125 6.54392L25.0196 20.0738V20.0741Z" fill="#00EE76"/>
<path d="M25.0201 20.0741L11.3126 6.54419C10.7563 6.67088 10.2861 7.1552 10.2861 8.14534V32.0653C10.2861 32.9719 10.65 33.625 11.3337 33.6877L25.0198 20.0738L25.0201 20.0741Z" fill="#00D3FF"/>
</g>
<defs>
<clipPath id="clip0_367_202">
<rect width="138.182" height="40" fill="white" transform="translate(0.181641)"/>
</clipPath>
</defs>
</svg>
