<svg width="190" height="60" viewBox="0 0 190 60" fill="none" xmlns="http://www.w3.org/2000/svg">
<g clip-path="url(#clip0_263_70)">
<path d="M169.539 59.5536H150.135C138.846 59.5536 129.674 50.5288 129.674 39.4214V20.3305C129.674 9.22304 138.846 0.198242 150.135 0.198242H169.539C180.828 0.198242 190 9.22304 190 20.3305V39.4214C190 50.5288 180.828 59.5536 169.539 59.5536Z" fill="white"/>
<path d="M15.321 13.8341V30.892H13.0531C9.32361 30.892 6.24934 28.8589 6.24934 22.5614C6.24934 16.0655 9.5756 13.7846 13.0531 13.7846H15.321V13.8341ZM11.7427 34.4127H15.321V49.4374H19.6048V10.3135H13.2042C6.90451 10.3135 1.61273 14.4292 1.61273 22.611C1.61273 28.4622 3.93103 31.6358 7.45889 33.3713L0 49.4374H4.93899L11.7427 34.4127ZM73.6313 24.9416C76.1512 24.9416 76.9072 28.4127 76.9072 33.1234H69.7507C70.0026 28.2143 70.9602 24.9416 73.6313 24.9416ZM56.0424 25.2887V45.9168H48.5836C50.9019 40.0655 51.2042 31.5862 51.2042 25.7846V25.2887H56.0424ZM112.438 49.8341C115.008 49.8341 116.772 48.9912 118.284 47.7515L117.276 44.5779C116.268 45.4705 114.655 46.2639 112.538 46.2639C109.011 46.2639 107.347 42.3465 107.347 35.4044C107.347 28.4622 109.565 24.9912 112.69 24.9912C114.454 24.9912 116.117 25.9333 117.326 26.925L117.931 22.8589C116.721 22.1151 115.26 21.4209 112.74 21.4209C106.188 21.4209 102.761 26.9746 102.761 35.6027C102.812 45.0738 106.44 49.8341 112.438 49.8341ZM90.1618 35.7019L97.5703 49.4374H102.308L94.3448 34.8093L101.3 21.8176H96.9151L90.1618 34.5614V21.8176H85.8276V49.3879H90.1618V35.7019ZM40.2175 21.8672H35.9337V33.5697H29.4828V21.8672H25.1485V49.4374H29.4828V37.0407H35.9337V49.4374H40.2175V21.8672ZM81.3926 47.5532L80.3846 44.2804C79.2759 45.0242 77.3103 46.1647 74.8913 46.1647C71.4642 46.1647 69.6499 42.892 69.6499 36.6441H81.3422V34.3135C81.3422 24.9416 78.2679 21.5201 73.6313 21.5201C67.6844 21.5201 65.1645 27.9664 65.1645 36.8424C65.1645 45.3217 68.7427 49.8837 74.4881 49.8837C77.3103 49.8341 79.6286 48.9416 81.3926 47.5532ZM62.5438 54.8424V45.9168H60.3263V21.8176H47.2732V24.1482C47.2732 31.487 46.9708 40.016 44.4509 45.8672H42.7374V54.7928H46.618V49.3879H58.6127V54.7928H62.5438V54.8424Z" fill="white"/>
<path d="M172.361 21.1733C166.968 21.1733 163.44 25.8841 163.44 35.4543C163.44 44.6279 166.968 49.6857 172.361 49.6857C177.804 49.6857 181.231 44.6279 181.231 35.4543C181.18 25.8841 177.804 21.1733 172.361 21.1733ZM172.361 46.4626C169.891 46.4626 167.422 44.2312 167.422 35.4543C167.422 27.2229 169.942 24.4461 172.361 24.4461C174.83 24.4461 177.3 26.975 177.3 35.4543C177.3 44.0328 174.78 46.4626 172.361 46.4626Z" fill="#262627"/>
<path d="M149.43 32.1814H155.376V34.6607C155.376 41.3054 153.159 46.3136 149.43 46.3136C145.851 46.3136 142.575 42.1979 142.575 29.95C142.575 16.8095 146.103 13.1401 149.984 13.1401C152.353 13.1401 154.318 14.3797 156.183 16.3632L157.695 12.3467C156.183 11.0574 153.814 9.56982 150.589 9.56982C143.483 9.56982 138.493 15.7186 138.493 29.7516C138.493 43.983 143.432 49.7847 149.43 49.7847C155.074 49.7847 159.408 45.0244 159.408 32.231V28.9087H149.43V32.1814Z" fill="#262627"/>
</g>
<defs>
<clipPath id="clip0_263_70">
<rect width="190" height="60" fill="white"/>
</clipPath>
</defs>
</svg>
